<svg id="Layer_1" data-name="Layer 1" xmlns="http://www.w3.org/2000/svg" viewBox="0 0 20.2 18.28">
  <defs>
    <style>
      .cls-1 {
        fill: #0551a0;
      }

      .cls-2 {
        fill: #ec2027;
      }

      .cls-3 {
        fill: #fff;
      }
    </style>
  </defs>
  <title>Artboard 1</title>
  <g>
    <g>
      <path class="cls-1" d="M3.76,4,3.67,5.66a2.42,2.42,0,0,1-.91.21,2.12,2.12,0,0,1-1.6-.7A3.15,3.15,0,0,1,.43,3,3.19,3.19,0,0,1,1.12.81,2.25,2.25,0,0,1,2.94,0a2.21,2.21,0,0,1,.75.14V1.76A1,1,0,0,0,3,1.42a.83.83,0,0,0-.73.4A2,2,0,0,0,2,2.93a2.9,2.9,0,0,0,.06.62A1.77,1.77,0,0,0,2.25,4,.82.82,0,0,0,3,4.39,1.18,1.18,0,0,0,3.76,4Z"/>
      <path class="cls-1" d="M4.3,5.77V.1H7.14V1.43H5.83v.83H7V3.54H5.83v.87H7.14V5.77Z"/>
      <path class="cls-1" d="M9.52,5.77H8V.1H9.48a2.53,2.53,0,0,1,1.64.45A1.84,1.84,0,0,1,11.75,2a1.8,1.8,0,0,1-.67,1.54,2.18,2.18,0,0,1-1.32.34H9.52Zm0-3.13h.07A.61.61,0,0,0,10,2.47.64.64,0,0,0,10.2,2,.67.67,0,0,0,10,1.53a.5.5,0,0,0-.41-.19H9.52Z"/>
      <path class="cls-1" d="M14.21,5.77H12.68V1.46h-.85V.1h3.25V1.46h-.87Z"/>
      <path class="cls-1" d="M15.6,5.77V.1h2.85V1.43H17.13v.83h1.18V3.54H17.13v.87h1.32V5.77Z"/>
    </g>
    <g>
      <path class="cls-1" d="M3.06,15.33l.65.17L2,18.28,1.35,18l.88-2.32A4.7,4.7,0,0,1,.59,16l-.25-1.4A4,4,0,0,0,2.4,14s.46-.48.11-.8a3.51,3.51,0,0,0-1-.68C.86,12.15,0,11.53,0,10.7A2.07,2.07,0,0,1,1,9.17,8.61,8.61,0,0,1,4,8l.12,1.4s-2.07.15-2.08.91c0,0,0,.41.49.72s1.76.79,2,1.42c0,0,.71,1.52-1.52,2.85"/>
      <polygon class="cls-2" points="11.62 8.83 13.61 6.16 11.37 7.85 11.62 8.83"/>
      <polygon class="cls-2" points="8.18 8.07 4.87 4.84 6.1 7 8.18 8.07"/>
      <g>
        <polygon class="cls-2" points="4.21 15.34 5.54 13.27 3.65 10.75 5.96 9.88 4.3 6.09 8.52 8.71 11.03 7.33 11.43 9.78 15.68 9.71 12.25 12.74 12.9 16.09 9.61 15.29 8.43 17.77 6.8 14.67 4.21 15.34"/>
        <polygon class="cls-2" points="3.4 17.32 6.55 15.03 7.01 15.81 3.4 17.32"/>
        <polygon class="cls-2" points="9.81 15.63 11.34 15.98 12.27 18.05 9.81 15.63"/>
      </g>
      <path class="cls-3" d="M8.67,9.22a2.6,2.6,0,0,1,3,2.79,2.81,2.81,0,0,1-3.1,2.62s-2.63,0-2.63-2.44c0,0,0-2.86,2.76-3"/>
      <path class="cls-2" d="M8.74,10.59s1.15-.07,1.1,1.38c0,0-.11,1.25-1.16,1.22a1.12,1.12,0,0,1-1-1.25s0-1.27,1.09-1.35"/>
      <polygon class="cls-1" points="13.9 16.12 15.77 15.76 15.04 12.03 19.07 15.2 20.2 13.71 16.93 11.4 18.96 8.43 17.47 7.49 14.96 11.59 14.29 8.04 12.4 8.39 13.9 16.12"/>
    </g>
  </g>
</svg>
